<?xml version="1.0" standalone="no"?>
<!DOCTYPE svg PUBLIC "-//W3C//DTD SVG 20010904//EN"
 "http://www.w3.org/TR/2001/REC-SVG-20010904/DTD/svg10.dtd">
<svg version="1.0" xmlns="http://www.w3.org/2000/svg"
 width="700.000000pt" height="700.000000pt" viewBox="0 0 700.000000 700.000000"
 preserveAspectRatio="xMidYMid meet">
<metadata>
Created by potrace 1.14, written by Peter Selinger 2001-2017
</metadata>
<g transform="translate(0.000000,700.000000) scale(0.100000,-0.100000)"
fill="#000000" stroke="none">
<path d="M2375 6696 c-101 -26 -599 -188 -677 -221 -113 -48 -248 -126 -350
-203 -123 -92 -130 -113 -93 -288 l7 -31 -99 -23 c-146 -34 -254 -76 -346
-136 -45 -30 -135 -74 -200 -100 -97 -38 -118 -50 -123 -70 -4 -17 10 -60 50
-146 l56 -122 -26 -33 c-41 -54 -140 -131 -222 -172 -139 -70 -242 -160 -242
-212 0 -28 296 -413 468 -607 l74 -83 -52 -77 c-67 -101 -123 -218 -156 -328
-36 -120 -45 -321 -19 -445 34 -168 109 -330 226 -484 32 -43 62 -88 65 -99
11 -37 169 -348 224 -441 361 -614 857 -1095 1415 -1370 97 -48 118 -63 178
-130 150 -165 333 -256 622 -308 104 -19 158 -21 410 -22 309 0 397 8 569 51
126 31 228 74 319 133 76 50 196 164 225 214 11 18 42 42 87 64 337 170 648
407 913 696 256 278 455 574 653 972 57 113 126 235 159 280 279 377 285 835
17 1223 -38 55 -62 105 -81 168 -16 49 -43 121 -62 159 -144 302 -446 551
-743 613 l-79 16 -31 76 c-134 329 -485 585 -849 619 -87 8 -248 1 -308 -14
-14 -3 -29 4 -45 21 -50 54 -187 149 -275 191 -148 70 -223 86 -404 87 -189 1
-285 -20 -435 -93 -174 -86 -286 -196 -372 -369 l-47 -93 -13 43 c-84 273
-213 897 -213 1029 0 55 -2 60 -26 69 -33 13 -87 11 -149 -4z m1415 -745 c90
-26 282 -119 328 -160 l33 -29 -88 -47 c-84 -45 -90 -46 -126 -34 -31 10 -42
10 -65 -2 -32 -17 -169 -150 -201 -196 l-22 -33 46 -12 c25 -7 44 -15 42 -18
-1 -3 -18 -35 -36 -71 -32 -62 -37 -67 -74 -73 -68 -11 -74 -18 -97 -118 -30
-128 -36 -270 -16 -385 21 -122 82 -274 134 -336 30 -34 0 -29 -90 15 -51 25
-127 56 -168 68 -41 12 -86 32 -100 45 -14 12 -52 36 -86 53 -158 79 -274 225
-335 422 -32 104 -33 253 -1 363 40 140 120 279 219 380 92 94 193 154 308
184 77 20 301 10 395 -16z m940 -296 c110 -30 250 -94 341 -156 87 -59 216
-191 262 -269 20 -36 37 -70 37 -77 0 -8 -14 -13 -37 -13 -21 -1 -58 -5 -83
-10 -43 -8 -46 -8 -75 26 l-30 34 -65 -19 c-123 -36 -270 -101 -270 -119 0 -5
18 -17 41 -28 l40 -20 -72 -47 c-65 -44 -74 -47 -102 -38 -52 19 -71 13 -118
-36 -120 -126 -193 -265 -225 -431 -18 -95 -18 -181 1 -279 8 -43 15 -79 15
-80 0 -1 -37 10 -82 24 -46 14 -94 35 -108 48 -14 13 -58 40 -98 61 -181 90
-334 307 -373 529 -49 281 105 631 357 811 73 53 129 78 226 105 103 27 285
21 418 -16z m853 -690 c180 -31 320 -106 442 -236 247 -263 336 -751 204
-1113 -43 -118 -103 -211 -194 -301 -113 -113 -215 -169 -393 -217 -108 -29
-325 -31 -432 -4 -159 40 -304 118 -428 229 -34 32 -67 57 -72 57 -21 0 -79
63 -98 107 -11 27 -23 83 -26 127 l-7 78 109 -7 c149 -10 195 1 325 79 59 35
158 85 222 111 63 26 115 52 115 56 0 16 -105 9 -180 -12 -41 -11 -138 -47
-215 -79 -137 -57 -273 -101 -347 -113 l-38 -6 -25 81 c-18 57 -25 101 -24
147 0 36 -2 116 -6 177 -6 95 -4 122 14 195 51 204 182 397 344 508 177 121
472 178 710 136z m-2745 -147 l42 -73 -47 -40 c-26 -22 -107 -97 -179 -166
-160 -154 -218 -187 -399 -224 -76 -16 -143 -36 -184 -57 -77 -39 -192 -145
-246 -227 -34 -51 -44 -60 -70 -61 -37 0 -191 -41 -263 -69 l-54 -21 7 32 c13
63 94 213 152 279 100 114 225 214 342 274 30 15 111 46 180 69 265 90 402
160 616 319 28 20 52 37 55 37 3 0 25 -33 48 -72z m206 -226 c16 -12 27 -24
25 -25 -2 -2 -33 -18 -69 -37 -137 -71 -256 -164 -343 -269 -87 -106 -103
-120 -182 -156 -66 -31 -139 -51 -380 -106 -92 -21 -255 -32 -255 -18 0 20
112 146 164 186 82 62 141 86 271 112 174 35 227 64 385 215 74 71 161 149
194 173 l59 43 51 -48 c28 -26 64 -58 80 -70z m181 -81 c38 -12 85 -21 105
-22 19 0 53 -6 75 -13 l40 -12 -29 -8 c-16 -4 -53 -23 -82 -42 -44 -27 -64
-34 -107 -34 -122 -1 -217 -94 -217 -213 0 -46 -22 -74 -98 -126 -30 -21 -36
-22 -84 -11 -67 17 -242 7 -333 -17 -38 -11 -109 -36 -157 -57 l-87 -37 -78
19 c-86 22 -85 24 37 48 128 25 248 62 312 96 56 30 86 58 197 188 30 34 91
90 135 123 93 69 251 150 281 143 11 -3 51 -14 90 -25z m315 -100 l52 -29 -34
-11 c-19 -6 -45 -22 -57 -35 l-23 -24 -41 24 c-23 13 -60 29 -81 35 l-39 11
29 17 c78 48 124 50 194 12z m-146 -79 c55 -25 63 -40 42 -80 -15 -29 -16 -30
-53 -16 -129 46 -317 -25 -317 -120 l0 -37 -18 33 c-22 43 -22 83 1 133 23 50
58 82 108 101 53 20 176 12 237 -14z m251 19 c19 -8 19 -8 -2 -15 -35 -11 -92
-85 -108 -140 -31 -103 -9 -207 49 -231 l31 -13 -27 -7 c-37 -9 -109 25 -139
66 -20 28 -24 46 -24 99 1 153 118 281 220 241z m125 -21 c20 0 81 -60 110
-108 20 -32 60 -137 60 -156 0 -9 -24 -4 -85 18 -74 27 -84 33 -78 51 19 60
-1 148 -44 191 -17 17 -17 18 0 11 10 -4 27 -7 37 -7z m-102 -42 c33 -36 43
-73 32 -121 -10 -49 -59 -97 -72 -72 -24 42 -16 215 11 215 4 0 17 -10 29 -22z
m-301 -69 c45 -12 45 -12 39 -48 -3 -20 -6 -48 -6 -63 0 -20 -7 -28 -31 -37
-100 -35 -199 15 -203 101 -1 31 2 34 44 45 59 15 101 16 157 2z m217 -137 c7
-21 5 -23 -16 -20 -29 4 -33 30 -17 106 l13 57 6 -60 c4 -33 10 -70 14 -83z
m529 33 c43 -14 91 -25 108 -25 l29 0 0 -64 c0 -86 -11 -112 -102 -253 -44
-68 -85 -141 -92 -164 -12 -40 -14 -42 -61 -46 -26 -2 -66 -13 -88 -23 l-41
-20 -28 27 c-15 15 -28 32 -28 37 0 6 20 41 45 77 l45 66 45 -5 c139 -15 184
177 65 278 -9 8 -25 44 -34 80 -8 36 -19 75 -22 88 l-6 22 43 -25 c24 -14 79
-36 122 -50z m-1056 -54 l32 -38 -40 -17 c-22 -10 -45 -26 -51 -36 -11 -17
-14 -17 -50 7 -21 14 -38 29 -38 32 0 4 12 14 28 23 15 9 38 28 51 42 14 14
27 26 30 25 3 0 20 -18 38 -38z m673 30 c0 -6 -5 -13 -11 -17 -19 -11 1 -57
43 -101 51 -52 151 -102 234 -116 35 -6 64 -15 64 -20 0 -41 -54 -97 -94 -97
-40 0 -152 46 -217 88 -108 71 -140 139 -103 217 17 37 84 73 84 46z m637 -31
c50 -22 58 -44 50 -130 -3 -40 -20 -90 -52 -160 -56 -123 -85 -231 -85 -317 0
-75 -9 -79 -59 -22 -71 80 -106 116 -120 120 -27 9 -1 78 66 176 97 142 123
203 123 286 0 77 5 80 77 47z m-1501 -82 c63 -23 138 -99 177 -178 123 -252
30 -641 -219 -909 -241 -260 -647 -365 -908 -235 -71 35 -139 106 -173 178
-26 56 -28 70 -28 181 0 98 4 134 23 195 54 170 174 371 298 497 228 230 606
354 830 271z m344 2 l42 -11 -50 -36 c-47 -32 -102 -99 -102 -123 0 -22 -16
-8 -42 38 -15 26 -35 57 -44 69 -15 21 -14 24 11 47 30 28 91 46 121 35 12 -4
41 -13 64 -19z m299 -45 c20 -10 49 -15 72 -13 38 3 39 2 39 -27 0 -16 -3 -53
-6 -82 -6 -45 -10 -52 -32 -56 -55 -10 -129 44 -175 127 -15 28 -35 58 -43 66
-13 13 -10 17 23 31 37 16 39 16 63 -6 14 -13 40 -30 59 -40z m-189 -29 c0
-44 -13 -62 -56 -86 -25 -13 -54 -34 -64 -48 -16 -19 -25 -23 -50 -17 -42 9
-45 19 -20 70 24 51 67 90 125 116 37 17 41 17 53 2 6 -9 12 -26 12 -37z
m-1210 9 c36 -9 71 -18 78 -20 8 -3 -19 -30 -66 -64 -43 -33 -84 -67 -91 -75
-11 -13 -18 -10 -56 19 -69 52 -127 70 -230 70 -77 0 -98 -4 -147 -27 -80 -37
-152 -107 -190 -186 -41 -83 -51 -208 -23 -297 35 -111 129 -211 235 -249 44
-16 50 -21 50 -47 0 -37 -16 -37 -118 -3 -107 35 -191 85 -267 156 -129 120
-163 272 -93 417 12 26 51 76 87 112 103 103 284 183 471 209 86 12 279 4 360
-15z m-998 -98 c47 -36 94 -69 103 -74 15 -9 13 -15 -18 -56 -58 -76 -80 -147
-75 -247 5 -92 21 -134 85 -222 67 -92 221 -187 374 -232 71 -20 112 -46 97
-62 -8 -7 -161 37 -232 67 -93 40 -195 109 -251 171 -122 136 -205 377 -205
596 0 110 7 147 24 133 6 -5 50 -38 98 -74z m3393 -12 c34 -73 40 -126 21
-183 -21 -61 -22 -122 -6 -292 13 -144 8 -255 -15 -317 -13 -37 -14 -37 -14
52 -1 86 -14 143 -46 204 -16 30 -70 84 -102 100 -20 10 -23 19 -23 79 0 94
22 177 80 301 28 59 50 116 50 127 1 18 1 18 16 -1 9 -11 27 -42 39 -70z
m-675 -49 l30 -12 -33 -52 -33 -52 -12 35 c-15 40 -52 69 -101 80 -32 7 -33 9
-27 44 3 20 6 42 6 48 0 7 31 -8 70 -33 38 -25 83 -51 100 -58z m-1960 32 c48
-20 100 -64 100 -84 0 -6 -7 -17 -16 -24 -54 -45 -214 -325 -245 -427 -6 -24
-13 -43 -15 -43 -1 0 -14 4 -27 9 -29 11 -37 0 -37 -49 0 -16 -5 -32 -10 -35
-28 -17 -148 95 -180 169 -128 289 152 605 430 484z m1522 12 c20 -6 56 -26
78 -45 41 -34 45 -35 127 -35 108 0 152 -22 153 -78 0 -34 28 -93 58 -125 l27
-29 -35 -29 c-19 -16 -50 -31 -70 -35 -126 -20 -174 -44 -205 -105 -19 -36
-19 -75 0 -130 15 -40 14 -48 -5 -110 -11 -37 -20 -79 -20 -93 0 -51 -75 -45
-147 13 -23 17 -57 32 -83 36 -49 8 -95 26 -122 47 -15 13 -15 19 -2 73 20 83
19 287 -1 412 -17 105 -15 123 11 123 8 0 37 21 64 46 27 25 66 52 87 60 47
16 41 16 85 4z m695 -289 c23 -11 47 -29 53 -42 30 -56 93 -109 147 -125 65
-19 105 -51 132 -107 45 -93 21 -160 -99 -268 -79 -72 -120 -133 -120 -178 0
-69 -66 -131 -139 -131 -46 0 -79 14 -150 65 -73 51 -88 57 -189 65 -104 9
-130 21 -169 80 -29 41 -29 82 -2 178 20 72 20 85 3 186 -13 79 39 132 147
148 70 10 78 15 173 92 70 56 143 68 213 37z m487 -81 c22 -82 67 -176 111
-235 37 -47 43 -82 26 -140 -19 -67 -340 -350 -366 -323 -3 3 2 24 11 47 13
33 27 47 65 66 117 60 159 199 139 465 -6 74 -13 151 -16 170 -9 55 11 23 30
-50z m-1449 -137 c-16 -194 -72 -326 -189 -446 -81 -83 -159 -138 -258 -179
-66 -28 -218 -72 -225 -65 -2 2 28 16 66 31 262 103 494 369 582 669 13 42 25
77 27 77 2 0 1 -39 -3 -87z m1665 -209 c0 -2 -9 -8 -19 -13 -16 -9 -18 -8 -14
8 3 12 11 17 19 14 8 -3 14 -7 14 -9z m-339 -88 c-7 -36 -20 -59 -59 -100 -56
-59 -73 -90 -97 -180 -39 -141 -180 -175 -359 -87 -98 48 -104 49 -200 60 -79
9 -132 37 -157 82 -10 20 -10 20 20 4 17 -9 71 -19 120 -24 71 -6 98 -14 133
-35 23 -15 68 -43 98 -62 42 -26 65 -34 102 -34 112 0 163 52 193 195 4 20 40
63 108 131 56 55 103 100 105 99 1 -1 -2 -23 -7 -49z m411 32 c17 -11 64 -36
105 -53 l74 -33 -66 -31 c-119 -55 -248 -151 -432 -322 -114 -106 -253 -131
-498 -89 -174 29 -256 29 -380 -3 -471 -121 -691 -100 -884 85 -28 27 -51 52
-51 56 1 4 39 30 85 58 l83 52 59 -39 c187 -125 387 -154 723 -104 l165 24 82
-40 c146 -71 281 -63 357 21 20 22 36 44 36 48 0 5 19 19 43 32 92 51 165 107
271 210 101 98 167 150 189 150 5 0 23 -10 39 -22z m-1691 -3 c16 -9 52 -20
79 -25 29 -6 66 -22 88 -39 42 -32 100 -54 134 -49 17 2 24 -2 26 -19 3 -19
-1 -23 -26 -23 -16 0 -44 11 -63 25 -56 40 -82 52 -127 59 -52 8 -109 35 -136
65 -23 25 -16 27 25 6z m-33 -51 c40 -31 121 -64 156 -64 14 0 38 -11 54 -25
40 -34 93 -55 137 -55 26 0 35 -4 35 -17 0 -26 47 -100 78 -122 16 -11 40 -23
55 -26 15 -4 27 -11 27 -15 0 -14 -148 -30 -273 -30 -195 0 -317 39 -471 151
-5 4 11 28 35 54 50 53 106 130 114 156 8 25 12 24 53 -7z m2014 -91 c51 -46
-15 -140 -127 -183 -47 -18 -80 -23 -155 -23 -52 1 -108 5 -123 10 -28 8 -27
9 60 74 184 138 287 175 345 122z m229 17 l69 0 0 -33 c0 -100 -91 -223 -206
-277 -184 -88 -495 -93 -624 -10 -12 8 -9 16 21 46 l37 37 67 -13 c151 -28
318 6 401 82 56 51 71 88 57 141 l-11 40 61 -7 c33 -3 91 -6 128 -6z m-2554
-406 c23 -18 48 -34 54 -36 9 -3 -3 -25 -32 -64 -65 -84 -94 -137 -125 -229
-25 -75 -28 -96 -35 -315 -4 -145 -13 -256 -21 -290 -39 -153 -127 -240 -241
-240 -64 0 -97 29 -97 84 0 47 24 90 92 164 22 24 49 64 60 89 21 49 22 77 2
329 -16 210 96 457 242 532 21 11 44 17 49 14 6 -3 29 -20 52 -38z m154 -82
c44 -16 45 -18 36 -47 -5 -16 -9 -84 -10 -150 0 -128 -3 -110 99 -480 48 -176
51 -292 10 -410 -35 -104 -88 -182 -148 -218 -93 -57 -194 -40 -212 35 -13 51
4 103 57 175 68 90 72 108 71 278 0 125 -5 173 -29 290 -36 171 -41 363 -12
429 15 35 74 113 87 115 3 1 26 -7 51 -17z"/>
<path d="M2143 3596 c-124 -30 -241 -121 -300 -233 -42 -78 -54 -128 -54 -221
0 -242 177 -435 414 -449 148 -10 266 37 368 144 113 118 155 280 114 436 -21
83 -50 133 -111 197 -113 118 -271 164 -431 126z m280 -60 c81 -39 160 -119
199 -202 82 -175 27 -399 -127 -516 -135 -103 -328 -116 -472 -31 -56 32 -134
119 -163 180 -105 224 19 505 259 585 86 28 227 21 304 -16z"/>
</g>
</svg>
